<?xml version="1.0" encoding="UTF-8"?><svg id="a" xmlns="http://www.w3.org/2000/svg" viewBox="0 0 341 395.61"><defs><style>.b,.c{fill:#435dff;}.c{stroke:#3658ff;stroke-miterlimit:10;}</style></defs><path class="c" d="M105.51,31.01c.22-1.38,.37-2.51,.6-3.63,2.99-14.35,15.84-21.14,29.26-15.13,4.21,1.88,7.97,4.78,11.9,7.27,1.66,1.05,3.23,2.25,4.81,3.37,14.06-16.96,33.62-15.04,45.33,.05,4.07-2.75,8.04-5.71,12.28-8.25,16.78-10.03,31.24-3.37,34.61,16.14,1.01,.09,2.11,.27,3.21,.28,11.43,.14,18.48,6.87,17.39,18.26-.65,6.79-2.55,13.92-5.7,19.94-8.87,16.95-18.63,33.44-28.13,50.06-3.4,5.95-3.48,6.08,2.67,8.36,34.29,12.72,55.06,37.84,66.18,71.9,7.66,23.45,10.71,47.71,12.94,72.11,.86,9.46,1.27,18.96,2.36,28.39,.38,3.35,1.87,6.67,3.36,9.76,2.09,4.34,4.8,8.38,6.99,12.68,5.06,9.96,3.56,20.08,.15,30.08-.39,1.14-2.4,2.16-3.82,2.44-52.12,10.03-104.4,12.83-156.98,3.57-10-1.76-20.13-2.77-30.18-4.25-6.26-.92-12.08,.16-18.05,2.26-13.31,4.67-26.58,9.94-40.32,12.78-18.85,3.89-36.06-1.14-49.96-15.09-1.83-1.84-3.36-4.61-3.74-7.15-2.82-18.97-3.25-38.12,3.03-56.36,3.24-9.43,4.28-18.97,6.19-28.49,4.08-20.39,7.75-40.87,12.24-61.17,1.67-7.57,4.79-14.9,7.89-22.06,11.86-27.36,32.54-44.92,60.81-53.82,6.41-2.02,7-3.66,3.66-9.49-8.04-14.01-16.21-27.95-23.9-42.14-2.91-5.36-5.22-11.2-6.81-17.09-4.34-16.11,2.59-25.1,19.74-25.58ZM42.17,287.07c-.71,1.18-1.19,1.86-1.54,2.59-.57,1.2-1.18,2.4-1.56,3.67-4.88,16.25-5.18,32.82-3.11,49.49,.19,1.55,1.64,3.2,2.93,4.3,11,9.4,24,11.77,37.53,8.44,12.06-2.97,23.78-7.42,35.45-11.77,8.17-3.05,16.22-4.24,24.91-2.96,20.59,3.03,41.18,6.3,61.88,8.26,37.38,3.54,74.53,.46,111.49-5.67,3.55-.59,4.76-2.05,4.84-5.48,.15-6.73-2.92-12.2-6.34-17.57-3.7-5.8-6.86-11.7-7.28-18.85-.58-9.81-1.54-19.6-2.48-29.38-2.28-23.9-5.05-47.71-12.91-70.59-9.19-26.75-25.33-47.4-51.91-58.79-1.64-.7-3.45-1.38-5.18-1.39-6.15-.05-12.3,.24-18.45,.3-5.92,.06-11.83,.01-17.23,.01,4.55,12.64,8.92,24.76,13.29,36.87-.39,.13-.79,.27-1.18,.4-5.17-9.48-10.67-18.8-15.39-28.5-3.45-7.08-8.25-9.92-16.08-8.92-3.33,.42-4.63,1.24-4.89,4.58-.41,5.14-1.28,10.24-1.96,15.35l-.73-.12c-.49-6.41-.99-12.82-1.47-19.11-12.76-1.85-13.53-1.76-20.64,7.81-6.42,8.64-12.4,17.61-18.57,26.44l-1.13-.53c5.55-11.34,11.1-22.67,16.64-33.99,.11,.05-.18-.17-.47-.18-5.83-.05-11.68,.13-17.49-.2-2.15-.12-4.23-1.43-7.57-2.64-25.75,7.69-43.68,25.57-53.63,51.85-9.57,25.29-12.59,52.02-17.01,78.43-.26,1.56,1.27,3.99,2.67,5.16,11.8,9.78,23.76,19.36,35.67,29.02,1.15,.94,2.2,2,3.99,3.65-19.32,1.32-31.27-10.94-45.1-19.98ZM201.67,115.3c5.29,0,9.44,.16,13.56-.1,1.21-.08,2.86-1.04,3.45-2.09,9.86-17.36,19.65-34.76,29.25-52.26,1.57-2.86,2.43-6.2,3.13-9.43,1.25-5.74-.52-7.35-6.35-6.09-2.76,.6-5.45,1.52-8.21,2.06-3.91,.76-6.1-.86-6.09-4.99,0-2.66,.17-5.33,.1-7.99-.26-10.43-5.27-13.24-14.08-7.79-3.11,1.92-5.99,4.22-8.99,6.31-9.58,6.66-14.05,6.15-21.95-2.47-7.13-7.78-14.21-7.82-21.19-.13-8.02,8.85-12.37,9.28-22.31,2.4-3.96-2.74-7.85-5.69-12.14-7.81-5.31-2.62-9.28-.4-10.15,5.41-.54,3.59-.29,7.3-.39,10.95-.17,5.8-1.68,7.07-7.44,5.93-2.6-.51-5.11-1.54-7.72-2.01-4.98-.89-6.75,.77-5.61,5.61,.95,4.02,2.09,8.16,4.05,11.74,9.27,16.93,18.84,33.7,28.39,50.47,.56,.98,1.89,2.09,2.92,2.15,4.09,.25,8.21,.1,13.17,.1-1.45-13.25-2.83-25.8-4.21-38.34l1.33-.34c3.15,12.77,6.29,25.54,9.47,38.44h11.47c3.2-18.82,8.6-36.7,18.21-53.14-4.85,17.46-9.84,34.88-11.65,53.25h24.64c3.08-10.63,6.09-21.01,9.1-31.4l1.28,.4c-1.64,10.14-3.28,20.27-5.04,31.16Zm17.78,9.43H127.98v7.26h91.48v-7.26Z"/><path class="b" d="M171.46,318.29c-.43-4.49,.57-9.86-1.65-12.61-2.1-2.59-7.71-2.12-11.59-3.53-11.6-4.22-19.81-16.91-19.25-29.78,3.92-.79,7.96-1.61,12.65-2.56,2.25,11.01,5.68,21.32,19.35,23.99,0-13.65,.07-26.79-.13-39.92-.02-1.1-1.68-2.58-2.92-3.18-3.88-1.9-8.04-3.22-11.87-5.2-11.25-5.8-16.45-15.9-15.2-28.93,1.19-12.35,8.99-21.83,20.9-25.25,2.86-.82,5.79-1.36,8.98-2.1,.15-1.74,.3-3.52,.49-5.7h7.48c.15,1.76,.3,3.54,.49,5.82,15.87,1.97,26.07,10.26,28.87,27.19-4.59,.76-8.79,1.46-13.49,2.24-1.88-8.47-5.12-15.71-15.11-17.54-.19,1.46-.48,2.69-.49,3.93-.04,10.17,.09,20.33-.1,30.5-.06,3.11,.92,4.58,3.98,5.04,1.95,.29,3.84,1.07,5.74,1.68,15.46,4.95,22.97,15.8,22.17,32.01-.73,14.8-11.01,27.32-25.68,29.69-5.65,.91-6.82,3.12-6.18,7.97,.26,1.94,.04,3.94,.04,6.25h-7.49Zm13.67-21.26c11.27-1.26,18.21-9.98,17.86-21.74-.31-10.31-6.98-16.82-17.86-17.29v39.02Zm-14.43-92.16c-9.56,.97-16.05,7.79-16.43,17.06-.41,10.04,5.34,16.7,16.43,18.76v-35.82Z"/></svg>